<?xml version="1.0" encoding="UTF-8"?>
<svg id="Layer_2" data-name="Layer 2" xmlns="http://www.w3.org/2000/svg" viewBox="0 0 2596.65 1631.82">
  <defs>
    <style>
      .cls-1 {
        fill: none; stroke: #e9e3d9; stroke-width: 26; stroke-linejoin: round; stroke-linecap: round;
      }

      .cls-2 {
        fill: none;
      }
    </style>
  </defs>
  <g id="Layer_1-2" data-name="Layer 1">
    <g>
      <path class="cls-1" d="M1596.71,1362.31c-239.97,181.83-417.53,78.42-572.35,109.27-105.12,20.95-195.31,73.95-286.31,124.95-78.23,43.85-165.5,37.18-251.22,30.29-121.08-9.74-228.67-42.43-326.02-118.85-52.28-57.96-112.32-119.26-138.37-198.39-70.41-213.88,30.55-443.98,223.45-555.94C220.45,391.43,503.23,95,859.98,103.55c268.63-159.91,603.24-133.14,844.65,70.11,293.25-12.21,548.58,180.93,605.69,476.31,116.77,56.54,214,137.36,261.46,257.32,55.36,139.92,17.55,291.8-105.94,376.76-126.33,128.06-329.61,108.16-487.95,39.87-117.22,72.84-248.31,84.42-381.19,38.38ZM865.44,1440.04c79.83-53.73,185.39-85.02,276.83-68.54,171.14,30.85,296.06-43.43,449.88-78.99,90.24-20.86,225.4-24.62,313.51-39.84,128.81,11.92,240.67,73.1,370.91,14.73,149.85-67.16,229.03-220.71,157.59-381.65-44.19-99.56-125.16-175.53-229.61-220.62-52.36-262.64-277.07-438.65-543.29-429.68-214.85-178.05-511.41-204.52-751.65-62.48-321.25-5.75-578.69,260.06-549.88,583.2-148.73,82.78-228.48,235.87-221.66,404.72,5.34,132.23,97.38,236.56,212.93,268.79,127.8,35.64,258.04-24.67,319.95-127.34,68.59-113.74,53.45-253.03-37.11-347.36-33.52,14.29-51.99,39.86-73.81,66.31,59.19,69.16,69.66,156.31,20.73,231.83-43.73,67.49-127.1,102.38-212.2,75.85-71.17-22.18-126.64-93.04-129.63-177.82-5.35-151.8,89.83-286.6,223.22-328.93,148.45-47.11,300.17,9.96,378.51,134.87,81.68,130.24,63.25,288.43-43.22,403.56,17.07,33.21,36.37,63.6,68,79.37Z"/>
      <path class="cls-2" d="M865.44,1440.04c-31.63-15.77-50.93-46.16-68-79.37,106.47-115.13,124.9-273.32,43.22-403.56-78.34-124.91-230.06-181.98-378.51-134.87-133.39,42.33-228.57,177.13-223.22,328.93,2.99,84.78,58.46,155.64,129.63,177.82,85.1,26.53,168.48-8.36,212.2-75.85,48.93-75.53,38.45-162.67-20.73-231.83,21.82-26.46,40.29-52.03,73.81-66.31,90.56,94.33,105.7,233.62,37.11,347.36-61.91,102.67-192.15,162.98-319.95,127.34-115.56-32.23-207.6-136.56-212.93-268.79-6.82-168.86,72.93-321.95,221.66-404.72-28.81-323.14,228.63-588.95,549.88-583.2,240.24-142.05,536.8-115.58,751.65,62.48,266.22-8.97,490.93,167.04,543.29,429.68,104.45,45.09,185.42,121.06,229.61,220.62,71.44,160.94-7.74,314.49-157.59,381.65-130.24,58.37-242.1-2.81-370.91-14.73-88.11,15.22-223.26,18.98-313.51,39.84-153.82,35.56-278.74,109.84-449.88,78.99-91.44-16.48-196.99,14.81-276.83,68.54ZM969.56,1280.73c88.4-15.32,151.65-19.3,225.02-10.54,139.06,16.59,270.67-26.26,378.79-112.08,208.69-165.63,272.49-448.93,150.44-680.94-118.44-225.16-385.83-349.98-633.62-268.61,178.77,76.77,294.3,225.45,326.79,387.82,39.02,195.04-20.87,379.91-161.26,508.35-34.65-17.42-50.51-45.91-70.03-76.69,151.04-136.94,185.73-356.84,82.87-534.88-97.25-168.34-300.45-258.06-498.43-199.59-176.47,52.12-317.68,222.34-308.69,420.81,167.91-36.48,320.72,18.51,422.48,130.88,107.66,118.88,133.69,277.68,85.62,435.46ZM1708.05,1179.62c220.32-7.37,381.54-181.04,400.4-379.17,19.38-203.61-108.61-409.29-336.18-449.87,171.82,269.79,152.1,588.12-64.22,829.04ZM2270.85,1155.14c73.84-43.26,104.52-125.5,79.38-202.87-23.32-71.77-69.85-130.38-137.57-166.56-10.41,156.02-77.11,279.58-193.84,384.27,87.35,33.56,176.17,29.59,252.04-14.85Z"/>
      <path class="cls-1" d="M969.56,1280.73c48.07-157.78,22.04-316.58-85.62-435.46-101.76-112.37-254.58-167.36-422.48-130.88-8.99-198.47,132.22-368.69,308.69-420.81,197.98-58.47,401.18,31.25,498.43,199.59,102.86,178.05,68.16,397.95-82.87,534.88,19.52,30.78,35.38,59.27,70.03,76.69,140.39-128.43,200.29-313.31,161.26-508.35-32.49-162.37-148.02-311.05-326.79-387.82,247.79-81.37,515.17,43.44,633.62,268.61,122.04,232.01,58.25,515.3-150.44,680.94-108.12,85.81-239.73,128.67-378.79,112.08-73.37-8.75-136.63-4.77-225.02,10.54Z"/>
      <path class="cls-1" d="M1708.05,1179.62c216.32-240.91,236.04-559.24,64.22-829.04,227.57,40.58,355.56,246.27,336.18,449.87-18.86,198.13-180.08,371.8-400.4,379.17Z"/>
      <path class="cls-1" d="M2270.85,1155.14c-75.87,44.44-164.69,48.41-252.04,14.85,116.73-104.69,183.43-228.26,193.84-384.27,67.72,36.18,114.25,94.79,137.57,166.56,25.14,77.37-5.53,159.61-79.38,202.87Z"/>
    </g>
  </g>
</svg>