<?xml version="1.0" encoding="UTF-8"?>
<svg id="Layer_2" data-name="Layer 2" xmlns="http://www.w3.org/2000/svg" viewBox="0 0 2415.09 1406.44">
  <defs>
    <style>
      .cls-1 {
        fill: none; stroke: #e9e3d9; stroke-width: 26; stroke-linejoin: round; stroke-linecap: round;
      }

      .cls-2 {
        fill: none;
      }
    </style>
  </defs>
  <g id="Layer_1-2" data-name="Layer 1">
    <g>
      <path class="cls-1" d="M16.05,1398.39C-50.33,999.1,91.73,582.71,394.84,312.82c504.43-449.14,1268.82-411.04,1716.77,91.15,244.55,274.16,344.21,638.89,288.39,1002.47l-2383.95-8.05ZM2152.41,1233.29c9.32-71.39,6.18-124.35,1-182.95l-204.97-8.55c-110.25-4.6-216.44,9.86-326.32-13.37l451.31-276.33c-23.01-63.73-50.43-123.34-100.39-155.62l-457.32,238.26,243.85-462.5c-48.79-39.7-102.55-65.45-160.98-86.05l-282.64,456.06-14.37-533.85c-60.28-13.54-117.06-7.08-178.79-2.53l-8.65,145.29c-7.48,125.53,11.64,247.38-16.67,377.48l-273.75-447.35c-60.67,25.05-106.71,55.23-157.15,94.16l245.58,464.38c-102.43-25.83-432.25-260.85-481.97-234.64,2.97-1.57-104.64,130.23-60.83,157.73l433.92,272.44-530.31,18.59c-17.37,54.5-19.3,121.99,1.12,179.79l1878.33-.44Z"/>
      <path class="cls-2" d="M2151.1,1219.51l-1878.33.44c-20.42-57.8-18.49-125.28-1.12-179.79l530.31-18.59-433.92-272.44c-43.8-27.5,63.8-159.29,60.83-157.73,49.72-26.21,379.54,208.81,481.97,234.64l-245.58-464.38c50.44-38.93,96.48-69.11,157.15-94.16l273.75,447.35c28.31-130.1,9.2-251.94,16.67-377.48l8.65-145.29c61.73-4.55,118.52-11.02,178.79,2.53l14.37,533.85,282.64-456.06c58.42,20.6,112.19,46.34,160.98,86.05l-243.85,462.5,457.32-238.26c49.96,32.28,77.38,91.89,100.39,155.62l-451.31,276.33c109.88,23.23,216.08,8.77,326.32,13.37l204.97,8.55c5.18,58.6,8.32,111.56-1,182.95Z"/>
    </g>
  </g>
</svg>